<?xml version="1.0" encoding="UTF-8" standalone="no"?>
<svg width="36px" height="25px" viewBox="0 0 36 25" version="1.1" xmlns="http://www.w3.org/2000/svg" xmlns:xlink="http://www.w3.org/1999/xlink" xmlns:sketch="http://www.bohemiancoding.com/sketch/ns">
    <!-- Generator: Sketch 3.2.2 (9983) - http://www.bohemiancoding.com/sketch -->
    <title>master card</title>
    <desc>Created with Sketch.</desc>
    <defs></defs>
    <g id="Page-1" stroke="none" stroke-width="1" fill="none" fill-rule="evenodd" sketch:type="MSPage">
        <g id="platron_payment-card" sketch:type="MSArtboardGroup" transform="translate(-454.000000, -165.000000)">
            <g id="Content" sketch:type="MSLayerGroup" transform="translate(30.000000, 100.000000)">
                <g id="cards" transform="translate(270.000000, 64.000000)" sketch:type="MSShapeGroup">
                    <g id="master-card" transform="translate(154.000000, 1.000000)">
                        <rect id="Rectangle-2" fill="#173386" x="0" y="0" width="36" height="25" rx="4"></rect>
                        <g id="Imported-Layers-3" transform="translate(4.235294, 3.125000)">
                            <path d="M11.0521985,9.1534375 C11.0521985,4.51916667 14.7024265,0.763229167 19.2052059,0.763229167 C23.7079853,0.763229167 27.3573529,4.51916667 27.3573529,9.1534375 C27.3573529,13.7877083 23.7079853,17.5445313 19.2052059,17.5445313 C14.7024265,17.5445313 11.0521985,13.7877083 11.0521985,9.1534375" id="Fill-1" fill="#E67D32"></path>
                            <path d="M13.7440588,2.90770833 C13.7483603,2.90770833 13.3173529,3.29109375 13.0291544,3.66739583 L14.4796103,3.66739583 C14.4796103,3.66739583 14.976,4.21901042 15.1592426,4.63515625 L12.3245735,4.63515625 C12.3245735,4.63515625 12.0492794,5.07963542 11.8668971,5.45505208 L15.6169191,5.45505208 C15.6169191,5.45505208 15.9593162,6.11557292 16.0341618,6.46442708 L11.4746029,6.46442708 C11.4746029,6.46442708 11.3180294,6.92130208 11.2526471,7.25776042 L16.2440735,7.2515625 C16.3808603,7.89703125 16.7137941,9.77234375 16.0281397,11.8433333 L11.4943897,11.8495313 C11.5666544,12.0983333 11.6905368,12.4347917 11.8083971,12.6827083 L15.7020882,12.6827083 C15.5446544,13.0200521 15.3158162,13.4432813 15.1850515,13.6557813 L12.3305956,13.6584375 C12.4811471,13.8930729 12.7228897,14.2631771 12.8794632,14.4322917 L14.6370441,14.4305208 C14.3066912,14.8997917 13.7483603,15.385 13.7483603,15.385 L13.7345956,15.385 L13.7526618,15.3911979 C12.3090882,16.7299479 10.3966544,17.5445313 8.30011765,17.5445313 C3.79733824,17.5445313 0.147970588,13.7877083 0.147970588,9.1534375 C0.147970588,4.51916667 3.79733824,0.763229167 8.30011765,0.763229167 C10.3923529,0.763229167 12.3004853,1.57427083 13.7440588,2.90770833" id="Fill-2" fill="#D9262E"></path>
                            <path d="M9.88047794,7.84213542 L9.74885294,8.59651042 L9.03308824,8.57791667 C9.03308824,8.57791667 8.67606618,8.67354167 8.67606618,8.829375 C8.67606618,8.9834375 8.93931618,9.17734375 9.33419118,9.35177083 C9.72992647,9.52619792 9.74885294,10.0096354 9.711,10.3390104 C9.67314706,10.6683854 9.61636765,11.3510417 8.46873529,11.3846875 C7.81061029,11.4041667 7.45272794,11.2686979 7.45272794,11.2686979 L7.60327941,10.4948437 C7.60327941,10.4948437 8.44980882,10.7268229 8.63821324,10.5913542 C8.82661765,10.4558854 9.05201471,10.2230208 8.69499265,10.0680729 C8.33711029,9.91401042 7.75383088,9.66078125 7.75383088,9.041875 C7.75383088,8.42296875 7.99901471,8.07411458 8.37496324,7.8996875 C8.75091176,7.72526042 9.40989706,7.74473958 9.88047794,7.84213542" id="Fill-3" fill="#FFFFFF"></path>
                            <path d="M4.22834559,11.2961458 L3.39644118,11.2961458 L3.87992647,8.35390625 L2.851875,11.2784375 L2.27805882,11.2784375 L2.13955147,8.23614583 L1.63713971,11.2961458 L0.849970588,11.2961458 L1.59154412,6.8053125 L2.54561029,6.8053125 L2.87940441,9.39072917 L3.98918382,6.8053125 L4.96905882,6.8053125 L4.22834559,11.2961458" id="Fill-4" fill="#FFFFFF"></path>
                            <path d="M10.6229118,11.3590104 C10.3519191,11.3590104 10.1592132,11.2961458 10.0430735,11.1783854 C9.92607353,11.0526562 9.86843382,10.8631771 9.86843382,10.6214583 C9.86843382,10.5577083 9.87531618,10.4957292 9.88219853,10.4408333 C9.88822059,10.3779687 9.901125,10.30625 9.90714706,10.2247917 L10.4078382,7.35161458 L11.1872647,7.35161458 L11.0737059,7.91296875 L11.802375,7.91296875 L11.6802132,8.62307292 L10.9515441,8.62307292 L10.7519559,9.84760417 C10.7390515,9.92729167 10.7261471,10.00875 10.7132426,10.0981771 C10.7003382,10.1796354 10.6943162,10.2610937 10.6943162,10.3151042 C10.6943162,10.4408333 10.7132426,10.5222917 10.7648603,10.5674479 C10.8095956,10.6117187 10.8870221,10.6391667 10.9902574,10.6391667 C11.0289706,10.6391667 11.0805882,10.6294271 11.1451103,10.6117187 C11.2096324,10.5851562 11.2681324,10.5674479 11.3059853,10.5391146 L11.3705074,10.5391146 L11.2483456,11.2598437 C11.1580147,11.2961458 11.0676838,11.3138542 10.9713309,11.3306771 C10.8741176,11.3492708 10.7588382,11.3590104 10.6229118,11.3590104" id="Fill-5" fill="#FFFFFF"></path>
                            <path d="M16.2182647,8.85859375 C16.0479265,8.723125 15.6685368,8.75057292 15.59025,9.02859375 L15.2160221,11.2961458 L14.4365956,11.2961458 L14.9975074,7.91296875 L15.7760735,7.91296875 L15.7605882,8.18567708 C15.9094191,8.0325 16.0737353,7.90322917 16.4909779,7.91651042 C16.5176471,7.91739583 16.2380515,8.41942708 16.2182647,8.85859375" id="Fill-6" fill="#FFFFFF"></path>
                            <path d="M17.6910882,11.3864583 C17.2592206,11.3864583 16.9168235,11.2332812 16.6862647,10.9357812 C16.4471029,10.6391667 16.3309632,10.2070833 16.3309632,9.64927083 C16.3309632,9.20744792 16.3834412,8.81166667 16.4858162,8.4521875 C16.5890515,8.09182292 16.7378824,7.78723958 16.9168235,7.52515625 C17.0983456,7.27369792 17.3116985,7.07536458 17.5629044,6.93192708 C17.8063676,6.78760417 18.0713382,6.71588542 18.3483529,6.71588542 C18.5668676,6.71588542 18.7741985,6.75130208 18.9677647,6.81505208 C19.0606765,6.8478125 19.2404779,6.93546875 19.2404779,6.93546875 L19.0598162,8.00239583 C18.9694853,7.88463542 18.8791544,7.79078125 18.7871029,7.72348958 C18.6511765,7.6340625 18.4903015,7.57916667 18.3096397,7.57916667 C17.9870294,7.57916667 17.7229191,7.75979167 17.5164485,8.11927083 C17.3039559,8.47963542 17.2007206,8.93916667 17.2007206,9.49609375 C17.2007206,9.85645833 17.2592206,10.1176562 17.3753603,10.2788021 C17.4906397,10.4319792 17.6583971,10.5134375 17.8786324,10.5134375 C18.0773603,10.5134375 18.2640441,10.4576562 18.4386838,10.3514062 C18.5212721,10.2947396 18.6021397,10.2363021 18.6812868,10.1698958 L18.4997647,11.188125 C18.4997647,11.188125 18.4059926,11.2350521 18.3603971,11.2509896 C18.252,11.2961458 18.1556471,11.3227083 18.0713382,11.3492708 C17.9810074,11.3669792 17.8528235,11.3864583 17.6910882,11.3864583" id="Fill-7" fill="#FFFFFF"></path>
                            <path d="M6.14680147,11.1783854 C6.11497059,11.2058333 6.08227941,11.2235417 6.05733088,11.2421354 C5.97302206,11.2872917 5.90247794,11.3227083 5.83193382,11.3492708 C5.76052941,11.3669792 5.66417647,11.3864583 5.53513235,11.3864583 C5.33468382,11.3864583 5.16778676,11.3041146 5.045625,11.1518229 C4.91658088,10.9889063 4.85205882,10.7826042 4.85205882,10.5311458 C4.85205882,10.2610938 4.89679412,10.0361979 4.987125,9.84760417 C5.07745588,9.66697917 5.21252206,9.51380208 5.39318382,9.40578125 C5.56094118,9.29864583 5.76052941,9.22692708 5.98678676,9.18088542 L6.14680147,9.1534375 C6.33434559,9.11802083 6.52791176,9.09145833 6.74040441,9.08171875 C6.74040441,9.06401042 6.74040441,9.04630208 6.74642647,9.01885417 C6.75330882,8.99229167 6.75330882,8.96484375 6.75330882,8.92942708 C6.75330882,8.78510417 6.70771324,8.6859375 6.61136029,8.62307292 C6.51414706,8.5690625 6.37219853,8.5425 6.186375,8.5425 L6.14680147,8.5425 C6.03152206,8.55135417 5.90247794,8.57791667 5.76052941,8.63192708 C5.60653676,8.69567708 5.48953676,8.73994792 5.41211029,8.78510417 L5.34156618,8.78510417 L5.45770588,7.9846875 C5.54803676,7.94838542 5.68998529,7.91296875 5.87666912,7.87666667 C5.967,7.84921875 6.05733088,7.84125 6.14680147,7.83151042 C6.24401471,7.81291667 6.34725,7.81291667 6.44360294,7.81291667 C6.82471324,7.81291667 7.10172794,7.88552083 7.28152941,8.02010417 C7.46219118,8.15557292 7.54563971,8.37161458 7.54563971,8.66822917 C7.54563971,8.70453125 7.54563971,8.75765625 7.53961765,8.82140625 C7.53273529,8.88515625 7.52671324,8.93916667 7.51983088,8.99229167 L7.14044118,11.2961458 L6.36617647,11.2961458 L6.42467647,10.9357813 C6.37908088,10.9809375 6.31455882,11.0349479 6.25003676,11.0978125 C6.21218382,11.124375 6.17949265,11.1518229 6.14680147,11.1783854 L6.14680147,11.1783854 Z M6.14680147,9.77588542 C6.06335294,9.79359375 5.99280882,9.82015625 5.93430882,9.84760417 C5.84483824,9.891875 5.77945588,9.95473958 5.73472059,10.0361979 C5.68310294,10.1176563 5.66417647,10.2247917 5.66417647,10.3602604 C5.66417647,10.4771354 5.69600735,10.5577083 5.75364706,10.6028646 C5.81816912,10.6471354 5.90247794,10.6745833 6.02463971,10.6745833 C6.06335294,10.6745833 6.10206618,10.6657292 6.14680147,10.6471354 C6.186375,10.6391667 6.22508824,10.6214583 6.26982353,10.6028646 C6.35413235,10.5488542 6.43672059,10.4859896 6.51414706,10.4142708 L6.63028676,9.69442708 C6.49522059,9.71213542 6.36015441,9.73072917 6.24401471,9.75729167 C6.21218382,9.75729167 6.17949265,9.76614583 6.14680147,9.77588542 L6.14680147,9.77588542 Z" id="Fill-8" fill="#FFFFFF"></path>
                            <path d="M12.8880662,8.49734375 C12.7848309,8.5159375 12.6884779,8.5690625 12.6110515,8.65848958 C12.5017941,8.78510417 12.4174853,8.94713542 12.3598456,9.16317708 L13.4102647,9.16317708 C13.4102647,9.12776042 13.4171471,9.1003125 13.4171471,9.06401042 C13.4171471,9.03744792 13.4231691,9.00114583 13.4231691,8.97458333 C13.4231691,8.81166667 13.3844559,8.69567708 13.3130515,8.60447917 C13.2425074,8.52479167 13.1461544,8.47963542 13.0102279,8.47963542 C12.972375,8.47963542 12.9267794,8.48760417 12.8880662,8.49734375 L12.8880662,8.49734375 Z M12.8880662,10.6214583 L13.0042059,10.6214583 C13.1719632,10.6214583 13.3328382,10.5851563 13.4876912,10.5036979 C13.6356618,10.4222396 13.7715882,10.3328125 13.8808456,10.2336458 L13.9711765,10.2336458 L13.8223456,11.1066667 C13.674375,11.1978646 13.5135,11.2686979 13.3457426,11.3138542 C13.2037941,11.3590104 13.0489412,11.3767188 12.8880662,11.3864583 L12.8175221,11.3864583 C12.3985588,11.3864583 12.0828309,11.2598438 11.8565735,10.9986458 C11.6320368,10.7463021 11.5210588,10.3956771 11.5210588,9.94588542 C11.5210588,9.64041667 11.5606324,9.35265625 11.6320368,9.1003125 C11.7025809,8.83911458 11.8118382,8.61421875 11.9469044,8.41588542 C12.0828309,8.22729167 12.2437059,8.08385417 12.4432941,7.96697917 C12.5852426,7.894375 12.7340735,7.84125 12.8880662,7.81291667 C12.9586103,7.80494792 13.0300147,7.80494792 13.1005588,7.80494792 C13.4618824,7.80494792 13.732875,7.90322917 13.9195588,8.11041667 C14.0993603,8.30875 14.1905515,8.61421875 14.1905515,9.01088542 C14.1905515,9.14546875 14.1836691,9.2809375 14.1647426,9.41552083 C14.1449559,9.54125 14.1191471,9.67671875 14.0873162,9.80244792 L12.2824191,9.80244792 L12.2824191,9.87328125 C12.2824191,10.1079167 12.3469412,10.2876563 12.4630809,10.4222396 C12.5594338,10.5311458 12.7013824,10.6028646 12.8880662,10.6214583 L12.8880662,10.6214583 Z" id="Fill-9" fill="#FFFFFF"></path>
                            <path d="M20.1919632,11.1783854 C20.1609926,11.2058333 20.1274412,11.2235417 20.0964706,11.2421354 C20.0190441,11.2872917 19.9416176,11.3227083 19.8710735,11.3492708 C19.7996691,11.3669792 19.7024559,11.3864583 19.5802941,11.3864583 C19.3738235,11.3864583 19.2129485,11.3041146 19.0847647,11.1518229 C18.9557206,10.9889063 18.8972206,10.7826042 18.8972206,10.5311458 C18.8972206,10.2610938 18.9419559,10.0361979 19.0331471,9.84760417 C19.1226176,9.66697917 19.2576838,9.51380208 19.4331838,9.40578125 C19.6000809,9.29864583 19.7996691,9.22692708 20.0310882,9.18088542 C20.0835662,9.17114583 20.1351838,9.16317708 20.1919632,9.1534375 C20.3734853,9.11802083 20.5739338,9.09145833 20.7795441,9.08171875 C20.7855662,9.06401042 20.7855662,9.04630208 20.7915882,9.01885417 C20.7915882,8.99229167 20.7993309,8.96484375 20.7993309,8.92942708 C20.7993309,8.78510417 20.7477132,8.6859375 20.6565221,8.62307292 C20.5601691,8.5690625 20.4182206,8.5425 20.2315368,8.5425 L20.1919632,8.5425 C20.0706618,8.55135417 19.9416176,8.57791667 19.8065515,8.63192708 C19.6508382,8.69567708 19.5355588,8.73994792 19.4581324,8.78510417 L19.3875882,8.78510417 L19.4977059,7.9846875 C19.5880368,7.94838542 19.7282647,7.91296875 19.9226912,7.87666667 C20.0130221,7.84921875 20.1024926,7.84125 20.1919632,7.83151042 C20.2900368,7.81291667 20.3855294,7.81291667 20.489625,7.81291667 C20.869875,7.81291667 21.1460294,7.88552083 21.3284118,8.02010417 C21.5013309,8.15557292 21.5916618,8.37161458 21.5916618,8.66822917 C21.5916618,8.70453125 21.5916618,8.75765625 21.5856397,8.82140625 C21.5787574,8.88515625 21.5727353,8.93916667 21.5649926,8.99229167 L21.1856029,11.2961458 L20.4113382,11.2961458 L20.4706985,10.9357813 C20.4182206,10.9809375 20.3605809,11.0349479 20.2900368,11.0978125 L20.1919632,11.1783854 L20.1919632,11.1783854 Z M20.1919632,9.77588542 C20.109375,9.79359375 20.0388309,9.82015625 19.9743088,9.84760417 C19.8908603,9.891875 19.8185956,9.95473958 19.7747206,10.0361979 C19.7282647,10.1176563 19.7024559,10.2247917 19.7024559,10.3602604 C19.7024559,10.4771354 19.7351471,10.5577083 19.7996691,10.6028646 C19.8573088,10.6471354 19.9485,10.6745833 20.0646397,10.6745833 C20.1024926,10.6745833 20.1480882,10.6657292 20.1919632,10.6471354 C20.2315368,10.6391667 20.27025,10.6214583 20.3081029,10.6028646 C20.3984338,10.5488542 20.4758603,10.4859896 20.5541471,10.4142708 L20.6763088,9.69442708 C20.5343603,9.71213542 20.4053162,9.73072917 20.2822941,9.75729167 C20.2504632,9.75729167 20.2186324,9.76614583 20.1919632,9.77588542 L20.1919632,9.77588542 Z" id="Fill-10" fill="#FFFFFF"></path>
                            <path d="M23.4817279,8.85859375 C23.3113897,8.723125 22.9328603,8.75057292 22.8537132,9.02859375 L22.4803456,11.2961458 L21.7009191,11.2961458 L22.2609706,7.91296875 L23.0403971,7.91296875 L23.0240515,8.18567708 C23.1720221,8.0325 23.3371985,7.90322917 23.7561618,7.91651042 C23.7819706,7.91739583 23.502375,8.41942708 23.4817279,8.85859375" id="Fill-11" fill="#FFFFFF"></path>
                            <path d="M25.0139118,8.63192708 C24.9743382,8.65052083 24.9373456,8.67796875 24.9037941,8.70453125 C24.8005588,8.77625 24.7171103,8.88515625 24.6465662,9.01088542 C24.5880662,9.13572917 24.5364485,9.2809375 24.5046176,9.46953125 C24.4650441,9.64927083 24.4461176,9.82989583 24.4461176,9.99989583 C24.4461176,10.2070833 24.4848309,10.3514063 24.5484926,10.4408333 C24.6207574,10.5391146 24.7231324,10.5851563 24.8590588,10.5851563 C24.9115368,10.5851563 24.9622941,10.5754167 25.0139118,10.5488542 C25.0397206,10.5391146 25.0586471,10.5311458 25.0844559,10.5134375 C25.1618824,10.4682813 25.2324265,10.4222396 25.3038309,10.3602604 L25.5808456,8.69567708 C25.53525,8.66822917 25.4844926,8.64078125 25.4139485,8.62307292 C25.3485662,8.59651042 25.2909265,8.58765625 25.2384485,8.58765625 C25.155,8.58765625 25.0844559,8.60447917 25.0139118,8.63192708 L25.0139118,8.63192708 Z M25.0139118,11.1164063 C24.9554118,11.1704167 24.8908897,11.2235417 24.8203456,11.2686979 C24.7558235,11.3041146 24.6913015,11.3404167 24.6336618,11.3590104 C24.5682794,11.3767188 24.4908529,11.3864583 24.4082647,11.3864583 C24.1691029,11.3864583 23.9815588,11.2775521 23.8404706,11.0703646 C23.7054044,10.8552083 23.634,10.5488542 23.634,10.1619271 C23.634,9.83786458 23.6658309,9.53151042 23.7441176,9.25260417 C23.8146618,8.97458333 23.9170368,8.72223958 24.0469412,8.50708333 C24.1759853,8.29015625 24.3239559,8.128125 24.496875,8.00239583 C24.6654926,7.88552083 24.83325,7.82265625 25.0139118,7.81291667 L25.0397206,7.81291667 C25.1739265,7.81291667 25.2909265,7.83151042 25.3881397,7.86692708 C25.4844926,7.90322917 25.5877279,7.96697917 25.6901029,8.04755208 L25.8638824,6.86817708 L26.6433088,6.86817708 L25.9292647,11.2961458 L25.1489779,11.2961458 L25.2066176,10.9446354 C25.1360735,11.0075 25.0706912,11.0623958 25.0139118,11.1164063 L25.0139118,11.1164063 Z" id="Fill-12" fill="#FFFFFF"></path>
                        </g>
                    </g>
                </g>
            </g>
        </g>
    </g>
</svg>