<?xml version="1.0" encoding="UTF-8" standalone="no"?>
<svg width="36px" height="26px" viewBox="0 0 36 26" version="1.1" xmlns="http://www.w3.org/2000/svg" xmlns:xlink="http://www.w3.org/1999/xlink" xmlns:sketch="http://www.bohemiancoding.com/sketch/ns">
    <!-- Generator: Sketch 3.2.2 (9983) - http://www.bohemiancoding.com/sketch -->
    <title>visa</title>
    <desc>Created with Sketch.</desc>
    <defs></defs>
    <g id="Page-1" stroke="none" stroke-width="1" fill="none" fill-rule="evenodd" sketch:type="MSPage">
        <g id="platron_payment-card" sketch:type="MSArtboardGroup" transform="translate(-410.000000, -164.000000)">
            <g id="Content" sketch:type="MSLayerGroup" transform="translate(30.000000, 100.000000)">
                <g id="cards" transform="translate(270.000000, 64.000000)" sketch:type="MSShapeGroup">
                    <g id="visa" transform="translate(110.000000, 0.000000)">
                        <g id="Group" transform="translate(4.235294, 9.333333)">
                            <path d="M10.6882505,0.0114537892 L9.34842182,8.20448239 L11.4670419,8.20448239 L12.8373176,0.0114537892 L10.6882505,0.0114537892" id="Fill-1" fill="#004F8B"></path>
                            <path d="M19.0683331,1.96941113 L19.3794797,0.253627211 C19.3794797,0.253627211 18.4448334,-0.107883114 17.3238451,-0.107883114 C16.2018512,-0.107883114 13.7720041,0.584768646 13.7720041,2.60183061 C13.7720041,4.62017576 16.793818,4.71046585 16.793818,5.82416029 C16.793818,6.93882685 14.0837137,6.8185956 13.2733893,6.09635264 L12.9307098,7.87287433 C12.9307098,7.87287433 14.1456132,8.32498583 15.2356719,8.32498583 C16.3261731,8.32498583 19.0378459,8.08425114 19.0378459,5.46416647 C19.0378459,3.17417335 16.0155092,3.62636261 16.0155092,2.24109798 C16.0155092,2.24109798 16.3261731,0.855716687 19.0683331,1.96941113" id="Fill-2" fill="#004F8B"></path>
                            <path d="M18.9119152,8.20448239 L21.2483299,8.20448239 L21.6539949,7.02966132 L24.5194713,7.02966132 L24.7582208,8.19406131 L26.7834487,8.19406131 L24.9251363,0.102910419 L23.0557632,0.102910419 C23.0557632,0.102910419 22.370364,0.178268815 22.0591772,0.976220129 C21.7631938,1.73485909 18.9119152,8.20448239 18.9119152,8.20448239" id="Fill-3" fill="#004F8B"></path>
                            <path d="M24.1772744,5.34319641 L22.2764891,5.34319641 L23.4609455,2.33115476 L24.1772744,5.34319641" id="Fill-4" fill="#FFFFFF"></path>
                            <path d="M7.56407512,0.0417449092 L5.36622043,5.5839311 L4.46302663,1.24689598 C4.46302663,1.24689598 4.37277161,0.0441946403 3.4863498,0.0441946403 L-0.132699793,0.0441946403 L-0.132699793,0.211242973 C-0.132699793,0.211242973 0.957358911,0.386184885 2.216867,1.15800573 L2.17539956,1.15633369 L4.10719499,8.20448239 L6.34969454,8.20448239 L9.83859028,0.0417449092 L7.56407512,0.0417449092" id="Fill-5" fill="#004F8B"></path>
                        </g>
                        <path d="M0.00796816105,19.75 L0.00796816105,22.8748464 C0.00796816105,24.6006515 1.40712487,25.9997048 3.13743611,25.9997196 L32.8518372,25.9999733 C34.5801946,25.999988 35.9813051,24.597378 35.9813051,22.875 L35.9813051,19.75 L0.00796816105,19.75 Z" id="Fill-6" fill="#EE9F2D"></path>
                        <path d="M0.00796816105,4.11162791 C0.00796816105,2.38573806 1.40712487,0.986627907 3.13743611,0.986627907 L32.8518372,0.986627907 C34.5801946,0.986627907 35.9813051,2.3892499 35.9813051,4.11162791 L35.9813051,7.23662791 L0.00796816105,7.23662791 L0.00796816105,4.11162791 Z" id="Fill-7" fill="#004F8B"></path>
                    </g>
                </g>
            </g>
        </g>
    </g>
</svg>